{"title":"20140921 - Share The Story - One Woman - Darren Embree.mp4","uid":11084827,"size":199799274,"categoryP":"video","categoryS":"other","magnet":"?xt=urn:btih:732ebb1dc13fb472261bcf8ed830016438fd8304&amp;dn=20140921+-+Share+The+Story+-+One+Woman+-+Darren+Embree.mp4&amp;tr=udp%3A%2F%2Ftracker.openbittorrent.com%3A80&amp;tr=udp%3A%2F%2Fopen.demonii.com%3A1337&amp;tr=udp%3A%2F%2Ftracker.coppersurfer.tk%3A6969&amp;tr=udp%3A%2F%2Fexodus.desync.com%3A6969","seeders":0,"leechers":0,"uploader":"davidrpeet","files":1,"time":1411443320,"description":"Share The Story - One Woman - Darren Embree\nWeekly sermons from CrossRoads Church in Decatur, Texas.\n\n\n\n\nGeneral\nFormat                                   : MPEG-4\nFormat profile                           : Base Media / Version 2\nCodec ID                                 : mp42\nFile size                                : 191 MiB\nDuration                                 : 38mn 28s\nOverall bit rate mode                    : Variable\nOverall bit rate                         : 692 Kbps\nMovie name                               : Share The Story - One Woman\nAlbum                                    : CrossRoads Church \nAlbum/Performer                          : Darren Embree\nPerformer                                : Darren Embree\nComposer                                 : http://crossroadspeople.com/\nGenre                                    : Speech\nRecorded date                            : 2014\nEncoded date                             : UTC 2014-09-22 03:21:28\nTagged date                              : UTC 2014-09-22 03:21:28\nCover                                    : Yes\nComment                                  : CrossRoads To Go Video Podcasts\n\nVideo\nID                                       : 1\nFormat                                   : AVC\nFormat/Info                              : Advanced Video Codec\nFormat profile                           : &lt;a class=&quot;__cf_email__&quot; href=&quot;/cdn-cgi/l/email-protection&quot; data-cfemail=&quot;feb6979996beb2cdd0cf&quot;&gt;[email&amp;#160;protected]&lt;/a&gt;&lt;script data-cfhash='f9e31' type=&quot;text/javascript&quot;&gt;\n/* &lt;![CDATA[ */!function(){try{var t=&quot;currentScript&quot;in document?document.currentScript:function(){for(var t=document.getElementsByTagName(&quot;script&quot;),e=t.length;e--;)if(t[e].getAttribute(&quot;data-cfhash&quot;))return t[e]}();if(t&amp;&amp;t.previousSibling){var e,r,n,i,c=t.previousSibling,a=c.getAttribute(&quot;data-cfemail&quot;);if(a){for(e=&quot;&quot;,r=parseInt(a.substr(0,2),16),n=2;a.length-n;n+=2)i=parseInt(a.substr(n,2),16)^r,e+=String.fromCharCode(i);e=document.createTextNode(e),c.parentNode.replaceChild(e,c)}t.parentNode.removeChild(t);}}catch(u){}}()/* ]]&gt; */&lt;/script&gt;\nFormat settings, CABAC                   : Yes\nFormat settings, ReFrames                : 4 frames\nCodec ID                                 : avc1\nCodec ID/Info                            : Advanced Video Coding\nDuration                                 : 38mn 28s\nBit rate                                 : 585 Kbps\nWidth                                    : 640 pixels\nHeight                                   : 360 pixels\nDisplay aspect ratio                     : 16:9\nFrame rate mode                          : Constant\nFrame rate                               : 29.970 fps\nColor space                              : YUV\nChroma subsampling                       : 4:2:0\nBit depth                                : 8 bits\nScan type                                : Progressive\nBits/(Pixel*Frame)                       : 0.085\nStream size                              : 161 MiB (84%)\nWriting library                          : x264 core 142 r2453 ea0ca51\nEncoded date                             : UTC 2014-09-22 03:21:28\nTagged date                              : UTC 2014-09-22 03:21:28\n\nAudio\nID                                       : 2\nFormat                                   : AAC\nFormat/Info                              : Advanced Audio Codec\nFormat profile                           : LC\nCodec ID                                 : 40\nDuration                                 : 38mn 28s\nBit rate mode                            : Variable\nBit rate                                 : 103 Kbps\nChannel(s)                               : 2 channels\nChannel positions                        : Front: L R\nSampling rate                            : 48.0 KHz\nCompression mode                         : Lossy\nStream size                              : 28.3 MiB (15%)\nEncoded date                             : UTC 2014-09-22 03:21:28\nTagged date                              : UTC 2014-09-22 03:21:28\n\n","torrent":{"xt":"urn:btih:732ebb1dc13fb472261bcf8ed830016438fd8304","amp;dn":"20140921+-+Share+The+Story+-+One+Woman+-+Darren+Embree.mp4","amp;tr":["udp%3A%2F%2Ftracker.openbittorrent.com%3A80","udp%3A%2F%2Fopen.demonii.com%3A1337","udp%3A%2F%2Ftracker.coppersurfer.tk%3A6969","udp%3A%2F%2Fexodus.desync.com%3A6969"],"infoHash":"732ebb1dc13fb472261bcf8ed830016438fd8304","infoHashBuffer":{"type":"Buffer","data":[115,46,187,29,193,63,180,114,38,27,207,142,216,48,1,100,56,253,131,4]},"announce":[],"urlList":[]}}